<svg width="153" height="39" viewBox="0 0 153 39" fill="none" xmlns="http://www.w3.org/2000/svg">
<path d="M44.36 26.16C43.8267 26.1867 43.4133 26.0533 43.12 25.76C42.84 25.4533 42.7 25.0667 42.7 24.6C42.7 24.24 42.8 23.9267 43 23.66C43.2 23.3933 43.5 23.2467 43.9 23.22L44.46 23.18C44.94 23.1533 45.2933 23.04 45.52 22.84C45.7467 22.6267 45.86 22.28 45.86 21.8V13.58C45.86 12.9667 46.02 12.5067 46.34 12.2C46.66 11.88 47.1133 11.72 47.7 11.72C48.2867 11.72 48.74 11.88 49.06 12.2C49.38 12.5067 49.54 12.9667 49.54 13.58V21.74C49.54 22.66 49.3733 23.44 49.04 24.08C48.7067 24.7067 48.2067 25.1933 47.54 25.54C46.8867 25.8733 46.0667 26.0667 45.08 26.12L44.36 26.16ZM58.013 26.22C56.9196 26.22 55.9663 26.0133 55.153 25.6C54.3396 25.1867 53.7063 24.5933 53.253 23.82C52.7996 23.0467 52.573 22.1333 52.573 21.08C52.573 20.28 52.6996 19.5667 52.953 18.94C53.2063 18.3 53.573 17.76 54.053 17.32C54.533 16.8667 55.1063 16.5267 55.773 16.3C56.4396 16.06 57.1863 15.94 58.013 15.94C59.1063 15.94 60.0596 16.1467 60.873 16.56C61.6863 16.9733 62.313 17.5667 62.753 18.34C63.2063 19.1 63.433 20.0133 63.433 21.08C63.433 21.8667 63.3063 22.58 63.053 23.22C62.7996 23.86 62.433 24.4067 61.953 24.86C61.4863 25.3 60.913 25.64 60.233 25.88C59.5663 26.1067 58.8263 26.22 58.013 26.22ZM58.013 23.6C58.373 23.6 58.693 23.5133 58.973 23.34C59.253 23.1533 59.4663 22.88 59.613 22.52C59.773 22.1467 59.853 21.6667 59.853 21.08C59.853 20.1867 59.6796 19.5467 59.333 19.16C58.9863 18.76 58.5463 18.56 58.013 18.56C57.653 18.56 57.333 18.6467 57.053 18.82C56.773 18.9933 56.553 19.2667 56.393 19.64C56.233 20 56.153 20.48 56.153 21.08C56.153 21.96 56.3263 22.6 56.673 23C57.0196 23.4 57.4663 23.6 58.013 23.6ZM72.7442 26.22C71.9842 26.22 71.3042 26.04 70.7042 25.68C70.1176 25.3067 69.7309 24.82 69.5442 24.22L69.7642 23.4V24.38C69.7642 24.9667 69.6109 25.4133 69.3042 25.72C69.0109 26.0267 68.5842 26.18 68.0242 26.18C67.4509 26.18 67.0109 26.0267 66.7042 25.72C66.4109 25.4133 66.2642 24.9667 66.2642 24.38V13.52C66.2642 12.9333 66.4176 12.4867 66.7242 12.18C67.0309 11.8733 67.4642 11.72 68.0242 11.72C68.5976 11.72 69.0376 11.8733 69.3442 12.18C69.6642 12.4867 69.8242 12.9333 69.8242 13.52V17.8H69.5842C69.7842 17.2533 70.1776 16.8067 70.7642 16.46C71.3509 16.1133 72.0109 15.94 72.7442 15.94C73.5976 15.94 74.3442 16.1467 74.9842 16.56C75.6376 16.9733 76.1442 17.56 76.5042 18.32C76.8642 19.08 77.0442 20 77.0442 21.08C77.0442 22.1333 76.8642 23.0467 76.5042 23.82C76.1442 24.5933 75.6376 25.1867 74.9842 25.6C74.3442 26.0133 73.5976 26.22 72.7442 26.22ZM71.6242 23.6C71.9842 23.6 72.2976 23.5133 72.5642 23.34C72.8442 23.1533 73.0642 22.88 73.2242 22.52C73.3842 22.1467 73.4642 21.6667 73.4642 21.08C73.4642 20.1867 73.2909 19.5467 72.9442 19.16C72.5976 18.76 72.1576 18.56 71.6242 18.56C71.2642 18.56 70.9442 18.6467 70.6642 18.82C70.3842 18.9933 70.1642 19.2667 70.0042 19.64C69.8442 20 69.7642 20.48 69.7642 21.08C69.7642 21.96 69.9376 22.6 70.2842 23C70.6309 23.4 71.0776 23.6 71.6242 23.6ZM81.9466 26.18C81.3599 26.18 80.9066 26.02 80.5866 25.7C80.2666 25.3667 80.1066 24.9 80.1066 24.3V13.6C80.1066 12.9867 80.2666 12.52 80.5866 12.2C80.9066 11.88 81.3599 11.72 81.9466 11.72C82.5466 11.72 82.9999 11.88 83.3066 12.2C83.6266 12.52 83.7866 12.9867 83.7866 13.6V17.34H89.6066V13.6C89.6066 12.9867 89.7599 12.52 90.0666 12.2C90.3866 11.88 90.8466 11.72 91.4466 11.72C92.0332 11.72 92.4799 11.88 92.7866 12.2C93.1066 12.52 93.2666 12.9867 93.2666 13.6V24.3C93.2666 24.9 93.1066 25.3667 92.7866 25.7C92.4799 26.02 92.0332 26.18 91.4466 26.18C90.8466 26.18 90.3866 26.02 90.0666 25.7C89.7599 25.3667 89.6066 24.9 89.6066 24.3V20.36H83.7866V24.3C83.7866 24.9 83.6332 25.3667 83.3266 25.7C83.0199 26.02 82.5599 26.18 81.9466 26.18ZM100.469 26.22C99.6159 26.22 98.9159 26.0667 98.3692 25.76C97.8226 25.44 97.4092 24.9667 97.1292 24.34C96.8626 23.7133 96.7292 22.92 96.7292 21.96V17.76C96.7292 17.1733 96.8826 16.7333 97.1892 16.44C97.4959 16.1333 97.9359 15.98 98.5092 15.98C99.0826 15.98 99.5226 16.1333 99.8292 16.44C100.136 16.7333 100.289 17.1733 100.289 17.76V22.06C100.289 22.54 100.389 22.9 100.589 23.14C100.789 23.38 101.103 23.5 101.529 23.5C102.009 23.5 102.403 23.3267 102.709 22.98C103.016 22.6333 103.169 22.1733 103.169 21.6V17.76C103.169 17.1733 103.323 16.7333 103.629 16.44C103.936 16.1333 104.376 15.98 104.949 15.98C105.523 15.98 105.963 16.1333 106.269 16.44C106.576 16.7333 106.729 17.1733 106.729 17.76V24.38C106.729 25.58 106.156 26.18 105.009 26.18C104.449 26.18 104.016 26.0267 103.709 25.72C103.403 25.4133 103.249 24.9667 103.249 24.38V23.22L103.569 24.2C103.276 24.8533 102.863 25.3533 102.329 25.7C101.809 26.0467 101.189 26.22 100.469 26.22ZM111.761 26.18C111.201 26.18 110.768 26.0267 110.461 25.72C110.154 25.4133 110.001 24.9667 110.001 24.38V17.76C110.001 17.1867 110.148 16.7467 110.441 16.44C110.748 16.1333 111.181 15.98 111.741 15.98C112.301 15.98 112.728 16.1333 113.021 16.44C113.314 16.7467 113.461 17.1867 113.461 17.76V18.7L113.241 17.88C113.561 17.2533 114.014 16.7733 114.601 16.44C115.201 16.1067 115.881 15.94 116.641 15.94C117.428 15.94 118.074 16.0933 118.581 16.4C119.088 16.6933 119.468 17.16 119.721 17.8C119.974 18.4267 120.101 19.22 120.101 20.18V24.38C120.101 24.9667 119.948 25.4133 119.641 25.72C119.334 26.0267 118.894 26.18 118.321 26.18C117.748 26.18 117.308 26.0267 117.001 25.72C116.694 25.4133 116.541 24.9667 116.541 24.38V20.32C116.541 19.72 116.434 19.2933 116.221 19.04C116.021 18.7867 115.721 18.66 115.321 18.66C114.788 18.66 114.361 18.8333 114.041 19.18C113.721 19.5133 113.561 19.9667 113.561 20.54V24.38C113.561 25.58 112.961 26.18 111.761 26.18ZM128.49 26.22C127.49 26.22 126.663 26.0667 126.01 25.76C125.37 25.4533 124.89 24.9933 124.57 24.38C124.25 23.7533 124.09 22.9733 124.09 22.04V18.78H123.41C122.983 18.78 122.65 18.6667 122.41 18.44C122.183 18.2133 122.07 17.8867 122.07 17.46C122.07 17.0333 122.183 16.7133 122.41 16.5C122.65 16.2733 122.983 16.16 123.41 16.16H124.09V14.92C124.09 14.3333 124.243 13.8867 124.55 13.58C124.857 13.2733 125.297 13.12 125.87 13.12C126.443 13.12 126.883 13.2733 127.19 13.58C127.497 13.8867 127.65 14.3333 127.65 14.92V16.16H129.29C129.73 16.16 130.063 16.2733 130.29 16.5C130.53 16.7133 130.65 17.0333 130.65 17.46C130.65 17.8867 130.53 18.2133 130.29 18.44C130.063 18.6667 129.73 18.78 129.29 18.78H127.65V21.92C127.65 22.4133 127.763 22.78 127.99 23.02C128.23 23.2467 128.603 23.36 129.11 23.36C129.297 23.36 129.477 23.34 129.65 23.3C129.823 23.26 129.983 23.24 130.13 23.24C130.343 23.2267 130.517 23.2933 130.65 23.44C130.783 23.5733 130.85 23.8867 130.85 24.38C130.85 24.78 130.79 25.12 130.67 25.4C130.55 25.6667 130.337 25.86 130.03 25.98C129.843 26.0467 129.59 26.1 129.27 26.14C128.95 26.1933 128.69 26.22 128.49 26.22ZM138.308 26.22C137.108 26.22 136.068 26.0133 135.188 25.6C134.321 25.1733 133.654 24.5733 133.188 23.8C132.721 23.0267 132.488 22.1133 132.488 21.06C132.488 20.0467 132.708 19.16 133.148 18.4C133.601 17.6267 134.214 17.0267 134.988 16.6C135.774 16.16 136.668 15.94 137.668 15.94C138.401 15.94 139.068 16.06 139.668 16.3C140.268 16.5267 140.781 16.8667 141.208 17.32C141.634 17.76 141.954 18.2933 142.168 18.92C142.394 19.5467 142.508 20.2467 142.508 21.02C142.508 21.2867 142.434 21.4867 142.288 21.62C142.141 21.74 141.908 21.8 141.588 21.8H135.468V20.12H139.908L139.588 20.38C139.588 19.8867 139.521 19.4867 139.388 19.18C139.254 18.8733 139.054 18.64 138.788 18.48C138.534 18.32 138.214 18.24 137.828 18.24C137.414 18.24 137.054 18.34 136.748 18.54C136.454 18.7267 136.228 19.0067 136.068 19.38C135.908 19.7533 135.828 20.22 135.828 20.78V20.96C135.828 21.9067 136.034 22.5867 136.448 23C136.874 23.4 137.528 23.6 138.408 23.6C138.701 23.6 139.034 23.5667 139.408 23.5C139.794 23.42 140.161 23.3133 140.508 23.18C140.854 23.0467 141.154 23.0267 141.408 23.12C141.661 23.2 141.854 23.3467 141.988 23.56C142.134 23.76 142.214 23.9933 142.228 24.26C142.241 24.5133 142.181 24.7667 142.048 25.02C141.914 25.26 141.694 25.4467 141.388 25.58C140.921 25.7933 140.421 25.9533 139.888 26.06C139.368 26.1667 138.841 26.22 138.308 26.22ZM147.062 26.18C146.475 26.18 146.022 26.0267 145.702 25.72C145.395 25.4133 145.242 24.9667 145.242 24.38V17.76C145.242 17.1867 145.388 16.7467 145.682 16.44C145.988 16.1333 146.422 15.98 146.982 15.98C147.542 15.98 147.968 16.1333 148.262 16.44C148.555 16.7467 148.702 17.1867 148.702 17.76V18.58H148.502C148.635 17.78 148.975 17.1467 149.522 16.68C150.082 16.2133 150.775 15.9667 151.602 15.94C151.988 15.9267 152.275 16.0267 152.462 16.24C152.662 16.44 152.768 16.82 152.782 17.38C152.782 17.86 152.682 18.24 152.482 18.52C152.282 18.8 151.902 18.9667 151.342 19.02L150.882 19.06C150.175 19.1267 149.662 19.3267 149.342 19.66C149.022 19.98 148.862 20.46 148.862 21.1V24.38C148.862 24.9667 148.708 25.4133 148.402 25.72C148.095 26.0267 147.648 26.18 147.062 26.18Z" fill="#0E0454"/>
<rect x="19.0919" width="27" height="27" rx="7" transform="rotate(45 19.0919 0)" fill="url(#paint0_linear_188_5)"/>
<rect x="18.5919" y="12.5208" width="10" height="10" rx="2" transform="rotate(45 18.5919 12.5208)" fill="white"/>
<defs>
<linearGradient id="paint0_linear_188_5" x1="19.0919" y1="13.5" x2="46.0919" y2="13.5" gradientUnits="userSpaceOnUse">
<stop stop-color="#CA38EE"/>
<stop offset="1" stop-color="#5038EE"/>
</linearGradient>
</defs>
</svg>
